<svg xmlns="http://www.w3.org/2000/svg" xmlns:xlink="http://www.w3.org/1999/xlink" version="1.1" x="0px" y="0px" viewBox="0 12 96 96" style="enable-background:new 0 0 96 96;" xml:space="preserve"><path d="M67.853,24.746c-0.35,0.425-0.56,0.969-0.56,1.561c0,0.735,0.326,1.395,0.839,1.846c-0.173,0.336-0.272,0.716-0.272,1.119  c0,0.726,0.318,1.377,0.819,1.828c0.208,2.232,2.416,3.995,5.101,3.995c2.685,0,4.892-1.763,5.101-3.995  c0.501-0.451,0.819-1.102,0.819-1.828c0-0.403-0.099-0.783-0.272-1.119c0.513-0.451,0.839-1.111,0.839-1.846  c0-0.592-0.21-1.136-0.56-1.561c2.092-1.745,3.344-4.351,3.344-7.122c0-5.112-4.159-9.271-9.271-9.271  c-5.112,0-9.271,4.159-9.271,9.271C64.509,20.395,65.762,23.001,67.853,24.746z M72.702,19.915h2.156l-1.078,3.059L72.702,19.915z   M74.161,25.802c0.001,0,0.002,0,0.003,0s0.002,0,0.004,0h3.637c0.273,0,0.504,0.231,0.504,0.504c0,0.273-0.231,0.504-0.504,0.504  h-0.567h-6.918h-0.567c-0.273,0-0.504-0.231-0.504-0.504c0-0.273,0.231-0.504,0.504-0.504H74.161z M77.743,29.272  c0,0.273-0.231,0.504-0.504,0.504h-6.918c-0.273,0-0.504-0.231-0.504-0.504c0-0.273,0.231-0.504,0.504-0.504h6.918  C77.512,28.768,77.743,28.999,77.743,29.272z M73.78,33.138c-1.281,0-2.387-0.578-2.883-1.406h5.767  C76.167,32.561,75.061,33.138,73.78,33.138z M73.78,10.309c4.033,0,7.314,3.281,7.314,7.314c0,2.534-1.327,4.893-3.475,6.222h-2.073  l1.616-4.584c0.105-0.299,0.059-0.631-0.124-0.89s-0.481-0.413-0.798-0.413h-4.92c-0.317,0-0.615,0.154-0.798,0.413  c-0.183,0.259-0.23,0.591-0.124,0.89l1.616,4.584H69.94c-2.148-1.329-3.475-3.688-3.475-6.222  C66.465,13.591,69.747,10.309,73.78,10.309z M72.802,5.813V3.982c0-0.54,0.438-0.978,0.978-0.978c0.54,0,0.978,0.438,0.978,0.978  v1.831c0,0.54-0.438,0.978-0.978,0.978C73.24,6.791,72.802,6.353,72.802,5.813z M63.442,8.669c-0.382-0.382-0.382-1.001,0-1.383  c0.382-0.382,1.001-0.382,1.383,0L66.12,8.58c0.382,0.382,0.382,1.001,0,1.383c-0.191,0.191-0.441,0.286-0.692,0.286  s-0.501-0.096-0.692-0.286L63.442,8.669z M59.16,17.624c0-0.54,0.438-0.978,0.978-0.978h1.831c0.54,0,0.978,0.438,0.978,0.978  c0,0.54-0.438,0.978-0.978,0.978h-1.831C59.598,18.602,59.16,18.164,59.16,17.624z M84.613,17.624c0-0.54,0.438-0.978,0.978-0.978  h1.831c0.54,0,0.978,0.438,0.978,0.978c0,0.54-0.438,0.978-0.978,0.978h-1.831C85.051,18.602,84.613,18.164,84.613,17.624z   M81.44,9.964c-0.382-0.382-0.382-1.001,0-1.383l1.295-1.295c0.382-0.382,1.001-0.382,1.383,0c0.382,0.382,0.382,1.001,0,1.383  l-1.295,1.295c-0.191,0.191-0.441,0.286-0.692,0.286C81.881,10.25,81.631,10.155,81.44,9.964z M89.363,84.558h-8.329l0,0H50.03  c-0.017,0-0.032,0.004-0.048,0.005c-0.037,0.002-0.074,0.005-0.111,0.011c-0.028,0.005-0.055,0.011-0.082,0.017  c-0.016,0.004-0.032,0.005-0.048,0.01l-10.47,3.241c-0.409,0.127-0.688,0.505-0.689,0.933c-0.001,0.428,0.278,0.807,0.686,0.935  l10.368,3.241c0.02,0.006,0.04,0.009,0.06,0.014c0.019,0.005,0.037,0.009,0.056,0.013c0.059,0.011,0.117,0.018,0.176,0.018  c0.001,0,0.002,0,0.003,0l31.001,0h8.329c2.044,0,3.665-1.263,3.69-2.876l0.042-2.656c0.01-0.657-0.26-1.299-0.761-1.808  C91.545,84.959,90.5,84.558,89.363,84.558z M80.021,87.799h-27.76l-0.645-1.285h28.425L80.021,87.799z M49.528,86.716l1.028,2.048  l-1.109,2.079l-3.709-1.159c0.035-0.606,0.047-1.209,0.036-1.805L49.528,86.716z M52.244,89.755H79.99l-0.02,1.284l-28.411,0  L52.244,89.755z M81.997,86.514h0.706l-0.071,4.525h-0.706L81.997,86.514z M43.82,88.483c-0.002,0.198-0.006,0.397-0.013,0.597  l-0.953-0.298L43.82,88.483z M90.995,90.09c-0.007,0.439-0.766,0.95-1.734,0.95h-4.673l0.071-4.525h4.704  c0.714,0,1.23,0.266,1.475,0.515c0.092,0.094,0.202,0.24,0.199,0.405L90.995,90.09z M46.98,73.73  c0.007-9.803,0.004-16.611-0.011-20.813v0c-0.002-0.716-0.052-1.455-0.142-2.21c2.032-6.988,2.061-14.343,0.081-21.294  c-0.002-0.075-0.008-0.151-0.023-0.228c-0.074-0.399-0.309-0.73-0.66-0.933l-3.46-1.998c-1.032-0.596-2.271-0.393-3.315,0.543  c-1.571,1.408-2.551,3.02-3.306,4.625c-1.178-0.96-2.398-1.761-3.645-2.394v-2.675c0-1.247-0.551-2.403-1.551-3.254  c-0.896-0.762-2.055-1.182-3.263-1.182h-4.297c-1.209,0-2.368,0.42-3.263,1.182c-1,0.851-1.551,2.007-1.551,3.254v2.667  c-1.138,0.576-2.252,1.291-3.332,2.14c-0.681-1.45-1.584-2.938-3.173-4.362c-1.044-0.935-2.283-1.139-3.315-0.543l-3.46,1.998  c-0.351,0.203-0.586,0.534-0.66,0.933c-0.014,0.076-0.02,0.152-0.022,0.227c-2.061,7.216-2.136,13.929-0.229,20.51  c-0.178,1.107-0.274,2.188-0.278,3.221c-0.014,4.174-0.018,11.1-0.011,20.586c0.004,4.682,3.527,8.491,7.854,8.491h27.178  C43.453,82.222,46.976,78.412,46.98,73.73z M8.815,35.287c0.309,0.618,0.585,1.266,0.829,1.947  c-0.406,0.588-0.794,1.192-1.161,1.806C8.341,37.621,8.449,36.391,8.815,35.287z M11.822,37.549  c2.296-3.103,7.13-8.308,13.715-8.308c3.762,0,7.281,1.771,10.264,4.472c0.006,0.007,0.014,0.012,0.021,0.019  c1.5,1.361,2.865,2.957,4.056,4.683c0.004,0.006,0.008,0.012,0.012,0.017c2.032,2.948,3.559,6.269,4.396,9.433  c-0.953-2.043-2.133-4.036-3.499-5.863c-4.36-5.834-9.776-9.047-15.251-9.047c-5.517,0-10.946,3.232-15.288,9.101  c-1.336,1.806-2.493,3.778-3.433,5.804C7.748,44.348,9.498,40.69,11.822,37.549z M27.95,27.494  c-0.801-0.138-1.606-0.209-2.413-0.209c-0.807,0-1.613,0.071-2.413,0.208v-0.976c0.06-0.028,0.15-0.051,0.265-0.051h4.297  c0.114,0,0.204,0.023,0.265,0.052V27.494z M42.63,35.586c0.335,1.131,0.418,2.436,0.255,3.927c-0.36-0.62-0.74-1.23-1.139-1.826  C42.004,36.96,42.301,36.258,42.63,35.586z M44.357,42.345c0.891-3.659,0.73-6.584-0.497-8.907c0.481-0.721,1.003-1.387,1.56-1.987  c1.16,4.853,1.306,9.88,0.439,14.799C45.457,44.95,44.952,43.638,44.357,42.345z M40.756,28.254  c0.228-0.205,0.665-0.517,1.031-0.305l2.761,1.594c-1.692,1.648-3.128,3.809-4.167,6.257c-0.865-1.109-1.77-2.116-2.706-3.018  C38.376,31.194,39.267,29.588,40.756,28.254z M20.53,26.353c0-0.664,0.306-1.291,0.863-1.764c0.542-0.461,1.251-0.716,1.995-0.716  h4.297c0.744,0,1.453,0.254,1.995,0.716c0.556,0.474,0.863,1.1,0.863,1.764v1.828c-0.212-0.076-0.424-0.146-0.637-0.213v-1.616  c0-0.479-0.229-0.949-0.629-1.289c-0.42-0.357-0.985-0.554-1.592-0.554h-4.297c-0.607,0-1.172,0.197-1.592,0.554  c-0.4,0.34-0.629,0.81-0.629,1.289v1.611c-0.213,0.066-0.425,0.136-0.637,0.212V26.353z M9.732,27.948  c0.365-0.211,0.803,0.101,1.031,0.305c1.513,1.356,2.294,2.776,2.934,4.232c-0.926,0.867-1.821,1.837-2.679,2.904  c-0.412-0.951-0.893-1.85-1.439-2.695c-0.02-0.035-0.041-0.069-0.065-0.101c-0.731-1.115-1.578-2.135-2.538-3.053L9.732,27.948z   M6.098,31.427c0.542,0.562,1.038,1.158,1.487,1.793c-1.254,2.336-1.441,5.096-0.593,8.597c-0.615,1.284-1.142,2.593-1.571,3.898  C4.638,41.111,4.864,36.394,6.098,31.427z M6.05,73.729c-0.005-5.959-0.005-10.907-0.001-14.797  c0.004-0.037,0.011-0.073,0.012-0.111c0.015-4.841,2.223-10.819,5.761-15.601c2.296-3.103,7.13-8.308,13.715-8.308  c10.708,0,19.445,14.331,19.475,23.683c0,0.039,0.007,0.077,0.012,0.115c0.004,3.889,0.004,8.863-0.001,15.019  c-0.003,3.604-2.649,6.536-5.897,6.536H11.948C8.699,80.265,6.053,77.333,6.05,73.729z M39.532,63.892V53.349  c0-1.898-1.544-3.442-3.442-3.442H14.984c-1.898,0-3.442,1.544-3.442,3.442v10.543c0,1.415,0.296,2.663,0.93,3.928l1.614,3.216  c0.156,1.736,1.617,3.101,3.393,3.101h16.116c1.776,0,3.237-1.365,3.393-3.101l1.614-3.216  C39.236,66.555,39.532,65.307,39.532,63.892z M35.047,70.728c0,0.801-0.651,1.452-1.452,1.452H17.479  c-0.801,0-1.452-0.651-1.452-1.452V57.396c0-1.109,0.903-2.012,2.012-2.012h14.996c1.109,0,2.012,0.903,2.012,2.012V70.728z   M37.575,63.892c0,0.994-0.179,1.85-0.572,2.731v-9.227c0-2.188-1.78-3.968-3.968-3.968H18.039c-2.188,0-3.968,1.78-3.968,3.968  v9.227c-0.393-0.88-0.572-1.737-0.572-2.731V53.349c0-0.819,0.666-1.485,1.485-1.485H36.09c0.819,0,1.485,0.666,1.485,1.485V63.892z   M18.677,46.033h13.72c1.372,0,2.488-1.116,2.488-2.488c0-1.372-1.116-2.488-2.488-2.488h-13.72c-1.372,0-2.488,1.116-2.488,2.488  C16.188,44.917,17.305,46.033,18.677,46.033z M18.677,43.013h13.72c0.288,0,0.532,0.244,0.532,0.532s-0.244,0.532-0.532,0.532  h-13.72c-0.288,0-0.532-0.244-0.532-0.532S18.388,43.013,18.677,43.013z M64.623,47.214c0-0.54,0.438-0.978,0.978-0.978h16.053  c0.54,0,0.978,0.438,0.978,0.978c0,0.54-0.438,0.978-0.978,0.978H65.601C65.06,48.192,64.623,47.755,64.623,47.214z M82.632,50.946  c0,0.54-0.438,0.978-0.978,0.978H65.601c-0.54,0-0.978-0.438-0.978-0.978c0-0.54,0.438-0.978,0.978-0.978h16.053  C82.195,49.968,82.632,50.406,82.632,50.946z M90.533,77.003h-0.201c-0.154-1.517-0.157-3.012-0.013-4.463h0.214  c1.257,0,2.296-0.964,2.441-2.202c0.001-0.009,0.003-0.018,0.004-0.027c0.01-0.089,0.015-0.179,0.015-0.271  c0-0.195-0.024-0.385-0.066-0.568l-2.315-27.619c-0.043-0.51-0.474-0.904-0.982-0.897l-31.55,0.231  c-0.285,0.002-0.564,0.023-0.834,0.061c0,0,0,0,0,0c-2.592,0.369-4.451,2.36-4.628,5.083l-1.782,27.353  c-0.053,0.357-0.08,0.72-0.08,1.087c0,1.921,0.734,3.733,2.066,5.1c1.339,1.374,3.116,2.131,5.004,2.131h32.707  c1.357,0,2.461-1.121,2.461-2.5C92.994,78.125,91.89,77.003,90.533,77.003z M88.368,77.003H57.826c-0.564,0-1.099-0.23-1.507-0.648  c-0.414-0.425-0.642-0.987-0.642-1.583c0-0.596,0.228-1.158,0.642-1.583c0.408-0.418,0.943-0.648,1.507-0.648h30.53  C88.223,73.997,88.227,75.49,88.368,77.003z M90.803,67.556c-0.089-0.01-0.179-0.016-0.27-0.016H57.826  c-0.14,0-0.28,0.006-0.418,0.014l0.942-24.412l30.389-0.223L90.803,67.556z M54.569,46.46c0.087-1.332,0.765-2.371,1.806-2.909  l-0.942,24.415c-0.864,0.319-1.665,0.811-2.36,1.46L54.569,46.46z M90.533,80.047H57.826c-1.356,0-2.636-0.547-3.603-1.54  c-0.974-1-1.511-2.327-1.511-3.735c0-1.408,0.536-2.735,1.511-3.735c0.967-0.993,2.247-1.54,3.603-1.54h32.707  c0.205,0,0.381,0.133,0.46,0.323l0.029,0.347c-0.053,0.239-0.252,0.417-0.489,0.417H57.826c-1.096,0-2.129,0.44-2.908,1.24  c-0.772,0.793-1.197,1.84-1.197,2.948c0,1.109,0.425,2.156,1.197,2.948c0.779,0.799,1.811,1.24,2.908,1.24h31.633  c0.001,0,0.001,0,0.002,0c0.001,0,0.002,0,0.003,0h1.069c0.278,0,0.504,0.244,0.504,0.544  C91.037,79.803,90.811,80.047,90.533,80.047z"/></svg>