<svg xmlns="http://www.w3.org/2000/svg" version="1.1" viewBox="15 5 70 90">
 <path fill="black" stroke="black" stroke-width="1" d="m60.629 47 1.9688-6.5703c0.26172-0.87109 0.03125-1.7812-0.60938-2.4219-0.64062-0.64062-1.5508-0.87109-2.4219-0.60937l-6.5664 1.9727-5.6406-3.9102c-0.75-0.51953-1.6797-0.57813-2.4883-0.17188-0.80859 0.41016-1.3086 1.1992-1.3281 2.1211l-0.14844 6.8594-5.4609 4.1602c-0.71875 0.55078-1.0703 1.4219-0.92969 2.3203s0.73828 1.6211 1.6016 1.9219l6.4805 2.2695 2.2695 6.4805c0.30078 0.85938 1.0195 1.4609 1.9219 1.6016 0.12891 0.019531 0.26953 0.03125 0.39844 0.03125 0.75 0 1.4492-0.33984 1.9219-0.96094l4.1602-5.4609 6.8594-0.14844c0.91016-0.019531 1.6992-0.51953 2.1211-1.3281 0.41016-0.80859 0.35156-1.7383-0.17188-2.4883zm2.4023 7.2891c-0.10156 0.19922-0.26172 0.30078-0.48047 0.30078l-7.3086 0.16016c-0.28906 0.011719-0.55078 0.14062-0.73047 0.37109l-4.4297 5.8203c-0.12891 0.17969-0.30859 0.25-0.53125 0.21094-0.21875-0.03125-0.37109-0.16016-0.44141-0.37109l-2.4102-6.8984c-0.089844-0.26953-0.30859-0.48047-0.57812-0.57812l-6.8984-2.4102c-0.21094-0.070312-0.32812-0.21875-0.37109-0.44141-0.03125-0.21875 0.039063-0.39844 0.21094-0.53125l5.8203-4.4297c0.23047-0.17188 0.35938-0.44141 0.37109-0.73047l0.16016-7.3086c0-0.21875 0.10938-0.37891 0.30078-0.48047 0.089844-0.039062 0.17188-0.070312 0.26172-0.070312 0.10938 0 0.21094 0.039062 0.30859 0.10938l6.0117 4.1719c0.23047 0.16016 0.53125 0.21094 0.80078 0.12891l7.0117-2.1016c0.21094-0.058594 0.39844-0.019532 0.55078 0.14062 0.16016 0.16016 0.19922 0.33984 0.14062 0.55859l-2.1016 7.0117c-0.078125 0.26953-0.039063 0.57031 0.12891 0.80078l4.1719 6.0117c0.12109 0.16406 0.12891 0.35547 0.03125 0.55469zm30.359-47.68c-2.3281-2.3281-5.8516-3.1406-9.9297-2.2812-3.9297 0.82812-7.9297 3.1211-11.27 6.4609-3.2617 3.2617-5.5195 7.1602-6.3906 11.012l-16.629-0.26172c-1.3281-0.03125-2.5312 0.46875-3.4688 1.4102l-40.305 40.289c-1.8711 1.8711-1.8711 4.9219 0 6.7891l24.582 24.574c0.89844 0.89844 2.1094 1.3984 3.3906 1.3984s2.4883-0.5 3.3906-1.3984l40.289-40.289c0.94141-0.94141 1.4297-2.1406 1.4102-3.4688l-0.26172-16.645c3.8398-0.87109 7.7188-3.1016 11.012-6.3789 3.3398-3.3398 5.6289-7.3398 6.4609-11.27 0.84766-4.082 0.039063-7.6094-2.2812-9.9414zm-17.66 46.371-40.301 40.289c-0.55078 0.55078-1.2812 0.85156-2.0703 0.85156-0.78125 0-1.5195-0.30078-2.0703-0.85156l-24.559-24.57c-1.1406-1.1406-1.1406-2.9883 0-4.1289l40.289-40.289c0.57812-0.57812 1.25-0.85938 2.0586-0.85938h0.050781l16.34 0.25c-0.16016 1.5195-0.070312 2.9414 0.26172 4.2305-0.089844 0.078125-0.19141 0.14062-0.26953 0.21875-1.7695 1.7695-1.7695 4.6406 0 6.4102 0.87891 0.87891 2.0391 1.3281 3.2109 1.3281 1.1602 0 2.3203-0.44141 3.2109-1.3281 1.7695-1.7695 1.7695-4.6406 0-6.4102-1.1992-1.1992-2.9102-1.5703-4.4414-1.1289-0.19922-1.0195-0.21875-2.1289-0.089844-3.2891l5.9805 0.089844c1.5898 0.019531 2.8516 1.2891 2.8789 2.8789l0.37109 24.199c0.007813 0.82812-0.26172 1.5195-0.85156 2.1094zm-9.2617-23.129c0.39844 0.78906 0.91016 1.5117 1.5391 2.1406 0.62109 0.62109 1.3516 1.1289 2.1484 1.5391-1.0312 0.69922-2.4492 0.58984-3.3594-0.32031-0.91797-0.91016-1.0156-2.332-0.32812-3.3594zm4.7695 2.1289c-0.71875-0.32812-1.3594-0.76953-1.8984-1.3203-0.55078-0.55078-0.98047-1.1992-1.3086-1.8984 0.21094-0.050781 0.42969-0.089844 0.64844-0.089844 0.67969 0 1.3594 0.26172 1.8789 0.78125 0.67969 0.6875 0.90234 1.6484 0.67969 2.5273zm16.641-5.4922c-2.8789 2.8789-6.3594 4.9414-9.7109 5.7891l-0.089844-5.6406c-0.039063-2.6094-2.1211-4.6797-4.7188-4.7188l-5.6484-0.089844c0.82812-3.2383 2.8086-6.7109 5.8086-9.7109 6.2617-6.2617 14.578-8.1406 18.539-4.1797 3.9609 3.9609 2.0898 12.281-4.1797 18.551zm-66.188 34.312c-1.1016-1.1016-2.8789-1.1016-3.9805 0l-4.1289 4.1289c-1.1016 1.1016-1.1016 2.8789 0 3.9805l17.512 17.512c0.53125 0.53125 1.2383 0.82031 1.9883 0.82031s1.4609-0.28906 1.9883-0.82031l4.1289-4.1289c0.53125-0.53125 0.82031-1.2383 0.82031-1.9883s-0.28906-1.4609-0.82031-1.9883zm16.18 20.168-4.1289 4.1289c-0.17969 0.17969-0.41016 0.26953-0.66016 0.26953s-0.48828-0.10156-0.66016-0.26953l-17.523-17.52c-0.17969-0.17969-0.26953-0.41016-0.26953-0.66016s0.10156-0.48828 0.26953-0.66016l4.1289-4.1289c0.17969-0.17969 0.41016-0.26953 0.66016-0.26953s0.48828 0.10156 0.66016 0.26953l17.512 17.512c0.17969 0.17969 0.26953 0.41016 0.26953 0.66016 0.019532 0.25781-0.078125 0.48828-0.25781 0.66797zm8.8281-11.48c0.37109 0.37109 0.37109 0.96094 0 1.3281-0.17969 0.17969-0.42188 0.28125-0.66016 0.28125-0.23828 0-0.48047-0.089844-0.66016-0.28125l-16.199-16.188c-0.37109-0.37109-0.37109-0.96094 0-1.3281 0.37109-0.37109 0.96094-0.37109 1.3281 0zm-4.1406 4.1406c0.37109 0.37109 0.37109 0.96094 0 1.3281-0.17969 0.17969-0.42188 0.28125-0.66016 0.28125-0.23828 0-0.48047-0.089843-0.66016-0.28125l-16.188-16.188c-0.37109-0.37109-0.37109-0.96094 0-1.3281 0.37109-0.37109 0.96094-0.37109 1.3281 0z"/>
</svg>