<svg  xmlns="http://www.w3.org/2000/svg" version="1.1" viewBox="15 5 70 90">
	<path fill="black" stroke="black" stroke-width="1" d="m96.691 35.621c-0.17969-0.28906-0.47266-0.49219-0.80859-0.55469l-11.629-2.1992 0.003906-19.844c0-0.058594-0.003906-0.11719-0.011718-0.17578-0.003906-0.011718-0.003906-0.023437-0.003906-0.035156-0.007813-0.054688-0.023438-0.11328-0.039063-0.16406 0-0.003907-0.003906-0.007813-0.003906-0.011719-0.015625-0.050781-0.039063-0.10156-0.0625-0.14844-0.003907-0.007812-0.007813-0.015625-0.011719-0.023437-0.023438-0.050782-0.054688-0.097656-0.085938-0.14062-0.007812-0.007813-0.011718-0.015625-0.019531-0.023438-0.03125-0.042969-0.0625-0.082031-0.097656-0.11719l-0.011719-0.011719c-0.039062-0.039063-0.082031-0.074219-0.125-0.10938-0.007812-0.007812-0.019531-0.015625-0.027344-0.023438-0.042968-0.03125-0.09375-0.0625-0.14062-0.089843-0.003907-0.003907-0.007813-0.003907-0.015626-0.007813-0.050781-0.027344-0.10156-0.046875-0.15625-0.066406-0.003906 0-0.007812-0.003906-0.011718-0.003906l-0.023438-0.007813-24.391-8.1953c-0.25391-0.085938-0.52344-0.085938-0.77734 0l-24.383 8.1914-0.023437 0.007813c-0.003907 0-0.007813 0.003906-0.011719 0.003906-0.054688 0.019531-0.10547 0.039062-0.15625 0.066406-0.003907 0.003906-0.007813 0.003906-0.015625 0.007812-0.050782 0.027344-0.097656 0.054688-0.14062 0.089844-0.011719 0.007813-0.019531 0.015625-0.027344 0.023438-0.042969 0.035156-0.085937 0.070312-0.125 0.10938-0.003906 0.003906-0.007813 0.007812-0.011719 0.011719-0.035156 0.039062-0.070312 0.078124-0.097656 0.11719-0.007812 0.007813-0.011719 0.015625-0.019531 0.023437-0.03125 0.042969-0.058594 0.089844-0.085938 0.14063-0.003906 0.007812-0.007812 0.015624-0.011719 0.023437-0.023437 0.046875-0.042968 0.097656-0.0625 0.14844 0 0.003907-0.003906 0.007813-0.003906 0.011719-0.019531 0.054688-0.03125 0.10938-0.039062 0.16406-0.003906 0.011718-0.003906 0.023437-0.003906 0.035156-0.007813 0.058594-0.011719 0.11328-0.011719 0.17578v10.145l-10.422-1.9727-1.8789-7.0547c-1.0117-3.8008-4.332-6.3516-8.2656-6.3516l-8.1016 0.003906c-0.67578 0-1.2188 0.54297-1.2188 1.2188 0 0.67188 0.54297 1.2188 1.2188 1.2188h8.0977c2.8125 0 5.1875 1.8242 5.9102 4.543l13.895 52.211c-2.4023 0.71094-4.1602 2.9414-4.1602 5.5703 0 3.2031 2.6055 5.8086 5.8086 5.8086h47.496c0.67188 0 1.2188-0.54297 1.2188-1.2188 0-0.67188-0.54297-1.2188-1.2188-1.2188l-47.492 0.003906c-1.8633 0-3.375-1.5156-3.375-3.375 0-1.8633 1.5156-3.375 3.375-3.375h52.816c0.54297 0 1.0234-0.36328 1.1719-0.88672l8.9453-31.691c0.089844-0.33203 0.039063-0.68359-0.14062-0.97656zm-61.25 7.7109v-18.707-0.003906-9.9023l21.973 7.3828v28.609zm24.406-21.23 5.9102-1.9844v7.8164 0.007812c0 0.027344 0.003907 0.054688 0.003907 0.082032 0 0.015624 0.003906 0.027343 0.003906 0.042968 0.003906 0.019532 0.007813 0.042969 0.007813 0.0625 0.003906 0.019532 0.007812 0.042969 0.011718 0.0625 0.003906 0.015625 0.007813 0.027344 0.011719 0.042969 0.007813 0.027344 0.011719 0.050781 0.023437 0.078125 0 0.003906 0 0.007812 0.003907 0.007812 0 0.003907 0.003906 0.007813 0.003906 0.011719 0.019531 0.054688 0.042969 0.10938 0.066406 0.16016 0.003907 0.003906 0.003907 0.007812 0.007813 0.011718 0.027344 0.050782 0.054687 0.097656 0.089844 0.14062 0.007812 0.011719 0.015624 0.023438 0.023437 0.035157 0.035156 0.042968 0.066406 0.082031 0.10547 0.12109 0.007812 0.007813 0.015625 0.011719 0.023437 0.019531 0.035157 0.035157 0.074219 0.066407 0.11328 0.09375 0.007813 0.007813 0.015626 0.011719 0.023438 0.019532 0.042969 0.03125 0.09375 0.058594 0.14062 0.085937 0.007813 0.003907 0.015625 0.007813 0.023437 0.011719 0.050782 0.023438 0.10156 0.042969 0.15234 0.0625 0.003906 0 0.003906 0 0.003906 0.003906 0.050782 0.015625 0.10547 0.027344 0.16406 0.039063 0.011719 0.003906 0.027344 0.003906 0.039063 0.007812 0.050781 0.007813 0.10156 0.011719 0.15625 0.011719h0.011718 0.007813c0.054687 0 0.10938-0.003906 0.16406-0.011719 0.011719-0.003906 0.023438-0.003906 0.035157-0.003906 0.058593-0.011719 0.11719-0.023437 0.17187-0.042969 0.003907 0 0.003907 0 0.007813-0.003906l7.6914-2.5859 0.023438-0.007812c0.007812-0.003906 0.019531-0.007812 0.027343-0.011719 0.027344-0.007812 0.050782-0.019531 0.074219-0.03125 0.015625-0.007812 0.027344-0.015625 0.042969-0.019531 0.019531-0.011719 0.039062-0.019531 0.058594-0.03125 0.019531-0.011719 0.035156-0.019531 0.050781-0.03125 0.015625-0.007812 0.03125-0.019531 0.046875-0.03125 0.019531-0.011719 0.039062-0.027344 0.054688-0.042969 0.011718-0.007812 0.023437-0.019531 0.039062-0.03125 0.019531-0.015625 0.035156-0.03125 0.050781-0.046875 0.011719-0.011718 0.023438-0.023437 0.035157-0.035156 0.015624-0.015625 0.03125-0.035156 0.046874-0.050781 0.011719-0.011719 0.023438-0.027344 0.035157-0.039063 0.011719-0.015625 0.023437-0.03125 0.035156-0.050781 0.011719-0.015625 0.023437-0.03125 0.035156-0.050781 0.007813-0.015625 0.019531-0.03125 0.027344-0.046875 0.011719-0.019531 0.023437-0.039063 0.03125-0.058594 0.007813-0.015625 0.015625-0.027344 0.019531-0.042969 0.007813-0.019531 0.019532-0.042968 0.027344-0.0625 0.007812-0.015625 0.011719-0.03125 0.015625-0.046875 0.007813-0.019531 0.015625-0.042969 0.019531-0.0625s0.007813-0.035156 0.015625-0.054687c0.003907-0.019532 0.007813-0.039063 0.011719-0.058594 0.003906-0.023438 0.007812-0.046875 0.011719-0.070312 0.003906-0.015626 0.003906-0.03125 0.007812-0.046876 0.003907-0.027343 0.003907-0.054687 0.003907-0.082031v-0.027343-0.027344-0.003906-8.6055l5.9102-1.9844v19.172 0.003906 9.4336l-21.973 7.3828zm-9.5625-13.188 20.586 6.918-3.8945 1.3086-20.586-6.918zm23.191 15.547-5.2852 1.7773v-6.9414l5.2852-1.7734zm-14.844-18.352 20.586 6.918-4.5234 1.5195-20.586-6.918zm-16.066 5.3984 20.586 6.918-4.5234 1.5195-20.586-6.918zm43.227 55.23h-51.09l-11.426-42.934 9.7266 1.8398v18.531 0.003907 0.027343 0.027344c0 0.027344 0.003906 0.054687 0.003906 0.082031 0 0.015625 0.003907 0.03125 0.007813 0.046875 0.003906 0.023438 0.007813 0.046875 0.011719 0.070313 0.003906 0.019531 0.007812 0.039062 0.011718 0.058594 0.003907 0.019531 0.007813 0.035156 0.015626 0.054687 0.007812 0.023437 0.011718 0.042969 0.019531 0.0625 0.003906 0.015625 0.011719 0.03125 0.015625 0.046875 0.007812 0.023438 0.019531 0.042969 0.027344 0.0625 0.007812 0.015625 0.011718 0.027344 0.019531 0.042969 0.011719 0.019531 0.019531 0.039062 0.03125 0.058593 0.007812 0.015626 0.019531 0.03125 0.027343 0.046876 0.011719 0.015624 0.023438 0.03125 0.035157 0.050781 0.011719 0.015625 0.023437 0.035156 0.035156 0.050781 0.011719 0.011719 0.023437 0.027344 0.035156 0.039062 0.015625 0.015626 0.03125 0.035157 0.046875 0.050782 0.011719 0.011718 0.023438 0.023437 0.035156 0.035156 0.015626 0.015625 0.035157 0.03125 0.050782 0.046875 0.011718 0.011719 0.023437 0.019531 0.039062 0.03125 0.019532 0.015625 0.035156 0.027344 0.054688 0.042969 0.015625 0.011718 0.03125 0.019531 0.046875 0.03125 0.019531 0.011718 0.035156 0.023437 0.050781 0.03125 0.019531 0.011718 0.039062 0.019531 0.058594 0.03125 0.015625 0.007812 0.027344 0.015625 0.042968 0.019531 0.023438 0.011719 0.050782 0.019531 0.074219 0.03125 0.007813 0.003906 0.019531 0.007813 0.027344 0.011719l0.023437 0.007812 24.383 8.1914c0.003906 0 0.003906 0 0.007813 0.003907 0.054687 0.019531 0.11328 0.03125 0.17187 0.042969 0.011719 0.003906 0.023438 0.003906 0.03125 0.003906 0.058594 0.007812 0.11719 0.015625 0.17578 0.015625s0.11719-0.007813 0.17578-0.015625c0.011719-0.003906 0.023437-0.003906 0.03125-0.003906 0.058594-0.011719 0.11719-0.023438 0.17188-0.042969 0.003906 0 0.003906 0 0.007812-0.003907l24.383-8.1914 0.023437-0.007812c0.007813-0.003906 0.019532-0.007813 0.027344-0.011719 0.027344-0.007813 0.050782-0.019531 0.074219-0.03125 0.015625-0.007813 0.027344-0.015625 0.042969-0.019531 0.019531-0.011719 0.039062-0.019532 0.058594-0.03125 0.019531-0.011719 0.035156-0.019532 0.050781-0.03125 0.015625-0.007813 0.03125-0.019532 0.046875-0.03125 0.019531-0.011719 0.035156-0.027344 0.054687-0.039063 0.011719-0.007812 0.023438-0.019531 0.039063-0.03125 0.019531-0.015625 0.035156-0.03125 0.050781-0.046875 0.011719-0.011718 0.023437-0.023437 0.035156-0.035156 0.015625-0.015625 0.03125-0.03125 0.042969-0.050781 0.011719-0.011719 0.023438-0.027344 0.035156-0.039063 0.011719-0.015625 0.023438-0.03125 0.035156-0.046875 0.011719-0.015625 0.023438-0.03125 0.035157-0.050781 0.007812-0.015625 0.019531-0.03125 0.027343-0.042969 0.011719-0.019531 0.023438-0.039062 0.03125-0.058593 0.007813-0.015626 0.011719-0.027344 0.019532-0.042969 0.011718-0.019531 0.019531-0.042969 0.027344-0.066407 0.007812-0.015624 0.011718-0.027343 0.015624-0.042968 0.007813-0.023438 0.015626-0.042969 0.023438-0.066406 0.003906-0.019532 0.007812-0.035157 0.011719-0.054688 0.003906-0.019531 0.007812-0.039062 0.011719-0.058594 0.003906-0.023437 0.007812-0.042968 0.011718-0.066406 0.003906-0.015625 0.003906-0.03125 0.007813-0.050781 0.003906-0.027344 0.003906-0.054688 0.003906-0.082031v-0.03125-8.8594l9.8672 1.8672zm-44.809 14.117c-4.2852 0-7.7695 3.4844-7.7695 7.7695s3.4844 7.7695 7.7695 7.7695 7.7695-3.4844 7.7695-7.7695-3.4844-7.7695-7.7695-7.7695zm0 13.105c-2.9414 0-5.332-2.3945-5.332-5.332 0-2.9414 2.3945-5.332 5.332-5.332 2.9414 0 5.332 2.3945 5.332 5.332s-2.3906 5.332-5.332 5.332zm33.324-13.105c-4.2852 0-7.7695 3.4844-7.7695 7.7695s3.4844 7.7695 7.7695 7.7695 7.7695-3.4844 7.7695-7.7695c-0.003906-4.2852-3.4883-7.7695-7.7695-7.7695zm0 13.105c-2.9414 0-5.332-2.3945-5.332-5.332 0-2.9414 2.3945-5.332 5.332-5.332 2.9414 0 5.332 2.3945 5.332 5.332s-2.3945 5.332-5.332 5.332z"/>
</svg>